<?xml version="1.0" encoding="UTF-8"?>
<svg xmlns="http://www.w3.org/2000/svg" viewBox="0 0 1080 1920" width="1080" height="1920">
  <rect width="1080" height="1920" fill="#fff"/>
  <rect x="0" y="0" width="1080" height="120" fill="#fff" stroke="#0a0a0a" stroke-width="2"/>
  <text x="540" y="85" text-anchor="middle" font-family="Outfit, Arial, sans-serif" font-weight="800" font-size="46" fill="#0a0a0a" letter-spacing="-2">BESTA</text>
  <rect x="0" y="120" width="1080" height="1100" fill="#e6b85c"/>
  <text x="540" y="700" text-anchor="middle" font-family="Outfit, Arial, sans-serif" font-weight="900" font-size="220" fill="#0a0a0a" letter-spacing="-12" opacity="0.15">CORD SET</text>
  <text x="80" y="1310" font-family="DM Sans, Arial, sans-serif" font-size="24" fill="#777" letter-spacing="4">LADIES · CORD SETS</text>
  <text x="80" y="1380" font-family="Outfit, Arial, sans-serif" font-weight="900" font-size="64" fill="#0a0a0a" letter-spacing="-3">Mustard Anarkali Co-ord</text>
  <text x="80" y="1450" font-family="DM Sans, Arial, sans-serif" font-size="40" fill="#0a0a0a" font-weight="700">₹1,899</text>
  <text x="80" y="1540" font-family="DM Sans, Arial, sans-serif" font-size="22" fill="#777" letter-spacing="4">SELECT SIZE</text>
  <g font-family="DM Sans, Arial, sans-serif" font-size="26" fill="#0a0a0a" font-weight="600">
    <rect x="80" y="1570" width="100" height="80" fill="none" stroke="#0a0a0a" stroke-width="2"/><text x="130" y="1622" text-anchor="middle">XS</text>
    <rect x="200" y="1570" width="100" height="80" fill="#0a0a0a"/><text x="250" y="1622" text-anchor="middle" fill="#fff">S</text>
    <rect x="320" y="1570" width="100" height="80" fill="none" stroke="#0a0a0a" stroke-width="2"/><text x="370" y="1622" text-anchor="middle">M</text>
    <rect x="440" y="1570" width="100" height="80" fill="none" stroke="#0a0a0a" stroke-width="2"/><text x="490" y="1622" text-anchor="middle">L</text>
    <rect x="560" y="1570" width="100" height="80" fill="none" stroke="#0a0a0a" stroke-width="2"/><text x="610" y="1622" text-anchor="middle">XL</text>
  </g>
  <rect x="80" y="1720" width="920" height="120" fill="#0a0a0a"/>
  <text x="540" y="1795" text-anchor="middle" font-family="Outfit, Arial, sans-serif" font-weight="800" font-size="36" fill="#fff" letter-spacing="6">ADD TO BAG</text>
</svg>
